<svg xmlns="http://www.w3.org/2000/svg" width="300" height="250" viewBox="0 0 300 250" role="img" aria-labelledby="title desc">
  <title id="title">TRINCA RV21 - Desafio Oficial</title>
  <desc id="desc">Arte de produto para o desafio feminino TRINCA RV21.</desc>
  <defs>
    <linearGradient id="bg" x1="0" x2="1" y1="0" y2="1">
      <stop offset="0" stop-color="#050505"/>
      <stop offset="0.54" stop-color="#080806"/>
      <stop offset="1" stop-color="#1b1308"/>
    </linearGradient>
    <linearGradient id="photoFade" x1="0" x2="1" y1="0" y2="0">
      <stop offset="0" stop-color="#050505" stop-opacity="1"/>
      <stop offset="0.36" stop-color="#050505" stop-opacity="0.88"/>
      <stop offset="0.7" stop-color="#050505" stop-opacity="0.22"/>
      <stop offset="1" stop-color="#050505" stop-opacity="0.62"/>
    </linearGradient>
    <linearGradient id="bottomFade" x1="0" x2="0" y1="0" y2="1">
      <stop offset="0" stop-color="#050505" stop-opacity="0"/>
      <stop offset="1" stop-color="#050505" stop-opacity="0.86"/>
    </linearGradient>
    <clipPath id="photoClip">
      <rect x="98" y="0" width="202" height="250"/>
    </clipPath>
  </defs>
  <rect width="300" height="250" fill="url(#bg)"/>
  <image href="ruriaaa.jpg" x="60" y="-6" width="320" height="266" preserveAspectRatio="xMidYMid slice" clip-path="url(#photoClip)" opacity="0.9"/>
  <rect width="300" height="250" fill="url(#photoFade)"/>
  <rect width="300" height="250" fill="url(#bottomFade)"/>
  <path d="M212 0h88v250h-116c24-28 36-66 34-114-2-49-3-91-6-136Z" fill="#d8b45a" opacity="0.08"/>
  <image href="logorv.jpg" x="22" y="15" width="34" height="34" preserveAspectRatio="xMidYMid slice"/>
  <circle cx="39" cy="32" r="17.2" fill="none" stroke="#d8b45a" stroke-opacity="0.68"/>
  <text x="64" y="36" fill="#fff7e8" font-family="Arial, Helvetica, sans-serif" font-size="12" font-weight="900">TRINCA RV21</text>
  <text x="22" y="75" fill="#d8b45a" font-family="Arial, Helvetica, sans-serif" font-size="9.2" font-weight="900">DESAFIO FEMININO OFICIAL RV</text>
  <text x="20" y="119" fill="#fff7e8" font-family="Arial, Helvetica, sans-serif" font-size="41" font-weight="900">TRINCA</text>
  <text x="20" y="157" fill="#f0c85d" font-family="Arial, Helvetica, sans-serif" font-size="41" font-weight="900">RV21</text>
  <rect x="22" y="171" width="134" height="1" fill="#d8b45a" opacity="0.72"/>
  <text x="22" y="190" fill="#efe5d2" font-family="Arial, Helvetica, sans-serif" font-size="12.4" font-weight="800">21 dias para recuperar</text>
  <text x="22" y="206" fill="#efe5d2" font-family="Arial, Helvetica, sans-serif" font-size="12.4" font-weight="800">disciplina e autoestima.</text>
  <rect x="22" y="222" width="82" height="19" fill="#d8b45a"/>
  <text x="32" y="236" fill="#080705" font-family="Arial, Helvetica, sans-serif" font-size="12" font-weight="900">R$ 37,89</text>
  <text x="206" y="219" fill="#fff7e8" font-family="Arial, Helvetica, sans-serif" font-size="9.2" font-weight="900">COM RURIÁ</text>
  <text x="206" y="234" fill="#d8b45a" font-family="Arial, Helvetica, sans-serif" font-size="9.2" font-weight="900">VIRGÍNIO</text>
  <rect x="0.5" y="0.5" width="299" height="249" fill="none" stroke="#d8b45a" stroke-opacity="0.54"/>
</svg>
